<svg xmlns="http://www.w3.org/2000/svg" viewBox="0 0 177.75 32.41"><defs><style>.cls-1{fill:#e65726;}.cls-2{fill:#1d9cd1;}</style></defs><g id="Layer_2" data-name="Layer 2"><g id="레이어_1" data-name="레이어 1"><path class="cls-1" d="M0,32l2.65-6.75s5.76.81,8.1-.77,2.67-1.8,6.2-10.77S22.1,1.06,22.1,1.06H32.19l-10,24.54a12.07,12.07,0,0,1-6.46,5.45c-4.29,1.3-7.6,1.44-15.72,1"/><path class="cls-1" d="M50.62,32l2.65-6.75s5.76.81,8.1-.77,2.67-1.8,6.21-10.77S72.72,1.06,72.72,1.06H82.81L72.8,25.6a12.07,12.07,0,0,1-6.46,5.45c-4.29,1.3-7.6,1.44-15.72,1"/><polygon class="cls-1" points="36.75 1.06 24.99 31.91 47.17 31.91 49.74 25.42 36.88 25.42 39.33 19.77 50.57 19.77 52.94 13.74 41.65 13.74 44.02 7.71 55.25 7.71 58.14 1.06 36.75 1.06"/><path class="cls-1" d="M87.28,1.06,79.11,22.4s-2.89,7,3,9.07,14.72.32,17.42-1,4.24-2,6.62-8,8-21.4,8-21.4h-10L96.73,21.18s-1.32,4.5-5.18,4.5-2.67-2.83-1.89-5.27S97.14,1.06,97.14,1.06Z"/><polygon class="cls-1" points="137.4 32.32 146.61 7.76 155.62 7.76 146.51 32.32 137.4 32.32"/><polygon class="cls-2" points="146.9 7.13 149.75 0 160.4 0 146.9 7.13"/><path class="cls-1" d="M150.42,32.32l9.2-24.56h8.88L166.86,12a12.79,12.79,0,0,1,10.89-4.24l-2.7,7.48s-8.72-2-11.9,6.6l-3.76,10.48Z"/><path class="cls-1" d="M126,26c-.94.58-3.28,1.48-4.87,1a1.74,1.74,0,0,1-1.1-1.11,2.35,2.35,0,0,1,.82-2.29c1.39-1.19,5-1.16,7.59-1.83,0,0-.57,3.12-2.44,4.27M136.2,8.53c-5.31-1.68-12.69-1.35-17.41,2-3.8,2.68-4.71,5.35-4.71,5.35h8.71a5.76,5.76,0,0,1,5.69-3.28c4.24.25,1.83,4.54-1.49,5.11s-13.84.68-16.06,6.56,3.15,7.57,3.15,7.57a15.82,15.82,0,0,0,11.46-1.4l-.77,1.9h8.72l6.61-17.91s1.4-4.19-3.9-5.88"/></g></g></svg>